<?xml version="1.0" encoding="utf-8"?>
<!-- Generator: Adobe Illustrator 24.1.1, SVG Export Plug-In . SVG Version: 6.00 Build 0)  -->
<svg version="1.1" id="Layer_1" xmlns="http://www.w3.org/2000/svg" xmlns:xlink="http://www.w3.org/1999/xlink" x="0px" y="0px"
	 viewBox="0 0 512 512" style="enable-background:new 0 0 512 512;" xml:space="preserve">
<style type="text/css">
	.st0{fill:#FAE501;}
	.st1{fill:#4FB5E1;}
	.st2{fill:#F05751;}
	.st3{fill:#0681B6;}
	.st4{fill:#CD4739;}
</style>
<g>
	<path class="st0" d="M184.4,356.8c-27.2-25.6-43.2-60.8-43.2-100.8s16-75.2,41.6-100.8c22.4-22.4,22.4-57.6,0-80
		c-22.4-22.4-57.6-22.4-80,0C58,121.6,29.2,185.6,29.2,256S58,390.4,104.4,436.8c22.4,22.4,57.6,22.4,80,0
		C205.2,414.4,205.2,379.2,184.4,356.8z"/>
	<path class="st1" d="M184.4,155.2C210,128,245.2,112,285.2,112c40,0,75.2,16,100.8,41.6c22.4,22.4,57.6,22.4,80,0
		c22.4-22.4,22.4-57.6,0-80C419.6,28.8,355.6,0,285.2,0c-70.4,0-134.4,28.8-180.8,75.2c-22.4,22.4-22.4,57.6,0,80
		C126.8,176,162,176,184.4,155.2z"/>
	<path class="st2" d="M386,356.8C360.4,384,325.2,400,285.2,400c-40,0-75.2-16-100.8-41.6c-22.4-22.4-57.6-22.4-80,0
		c-22.4,22.4-22.4,57.6,0,80c46.4,44.8,110.4,73.6,180.8,73.6c70.4,0,134.4-28.8,180.8-75.2c22.4-22.4,22.4-57.6,0-80
		C443.6,336,408.4,336,386,356.8z"/>
	<path class="st3" d="M144.4,59.2c30.9,0,56,25.1,56,56c0,30.9-25.1,56-56,56s-56-25.1-56-56C88.4,84.3,113.5,59.2,144.4,59.2z"/>
	<path class="st4" d="M144.4,340.8c30.9,0,56,25.1,56,56c0,30.9-25.1,56-56,56s-56-25.1-56-56C88.4,365.9,113.5,340.8,144.4,340.8z"
		/>
</g>
</svg>
